<mxfile host="app.diagrams.net" modified="2022-01-11T00:14:24.460Z" agent="5.0 (Windows)" etag="8m24iXF1VpSxHkl8-yUI" version="16.2.4" type="github">
  <diagram id="kgpKYQtTHZ0yAKxKKP6v" name="Page-1">
    <mxGraphModel dx="981" dy="565" grid="1" gridSize="10" guides="1" tooltips="1" connect="1" arrows="1" fold="1" page="1" pageScale="1" pageWidth="850" pageHeight="1100" math="0" shadow="0">
      <root>
        <mxCell id="0" />
        <mxCell id="1" parent="0" />
        <mxCell id="k6_hLHK1kPhXagSigNAJ-15" style="edgeStyle=orthogonalEdgeStyle;rounded=0;orthogonalLoop=1;jettySize=auto;html=1;exitX=0.5;exitY=1;exitDx=0;exitDy=0;exitPerimeter=0;entryX=0.5;entryY=0;entryDx=0;entryDy=0;entryPerimeter=0;" edge="1" parent="1" source="k6_hLHK1kPhXagSigNAJ-2" target="k6_hLHK1kPhXagSigNAJ-3">
          <mxGeometry relative="1" as="geometry" />
        </mxCell>
        <mxCell id="k6_hLHK1kPhXagSigNAJ-2" value="&lt;div&gt;Current Dev Env&lt;/div&gt;&lt;div&gt;&lt;br&gt;&lt;/div&gt;" style="verticalLabelPosition=bottom;verticalAlign=top;html=1;shape=card;whiteSpace=wrap;size=20;arcSize=12;" vertex="1" parent="1">
          <mxGeometry x="75" width="100" height="60" as="geometry" />
        </mxCell>
        <mxCell id="k6_hLHK1kPhXagSigNAJ-14" style="edgeStyle=orthogonalEdgeStyle;rounded=0;orthogonalLoop=1;jettySize=auto;html=1;exitX=1;exitY=0.5;exitDx=0;exitDy=0;exitPerimeter=0;entryX=-0.007;entryY=0.601;entryDx=0;entryDy=0;entryPerimeter=0;" edge="1" parent="1" source="k6_hLHK1kPhXagSigNAJ-3" target="k6_hLHK1kPhXagSigNAJ-12">
          <mxGeometry relative="1" as="geometry" />
        </mxCell>
        <mxCell id="k6_hLHK1kPhXagSigNAJ-3" value="Create MongoDB" style="strokeWidth=2;html=1;shape=mxgraph.flowchart.database;whiteSpace=wrap;" vertex="1" parent="1">
          <mxGeometry x="40" y="250" width="60" height="70" as="geometry" />
        </mxCell>
        <mxCell id="k6_hLHK1kPhXagSigNAJ-21" style="edgeStyle=orthogonalEdgeStyle;rounded=0;orthogonalLoop=1;jettySize=auto;html=1;exitX=1;exitY=0.5;exitDx=0;exitDy=0;exitPerimeter=0;" edge="1" parent="1" source="k6_hLHK1kPhXagSigNAJ-12" target="k6_hLHK1kPhXagSigNAJ-20">
          <mxGeometry relative="1" as="geometry" />
        </mxCell>
        <mxCell id="k6_hLHK1kPhXagSigNAJ-12" value="Finish C++ Part" style="strokeWidth=2;html=1;shape=mxgraph.flowchart.document2;whiteSpace=wrap;size=0.25;" vertex="1" parent="1">
          <mxGeometry x="170" y="250" width="100" height="60" as="geometry" />
        </mxCell>
        <mxCell id="k6_hLHK1kPhXagSigNAJ-17" style="edgeStyle=orthogonalEdgeStyle;rounded=0;orthogonalLoop=1;jettySize=auto;html=1;exitX=0.5;exitY=1;exitDx=0;exitDy=0;exitPerimeter=0;entryX=0.5;entryY=0;entryDx=0;entryDy=0;entryPerimeter=0;" edge="1" parent="1" source="k6_hLHK1kPhXagSigNAJ-16" target="k6_hLHK1kPhXagSigNAJ-12">
          <mxGeometry relative="1" as="geometry" />
        </mxCell>
        <mxCell id="k6_hLHK1kPhXagSigNAJ-16" value="AI" style="strokeWidth=2;html=1;shape=mxgraph.flowchart.delay;whiteSpace=wrap;" vertex="1" parent="1">
          <mxGeometry x="170" y="120" width="100" height="60" as="geometry" />
        </mxCell>
        <mxCell id="k6_hLHK1kPhXagSigNAJ-25" style="edgeStyle=orthogonalEdgeStyle;rounded=0;orthogonalLoop=1;jettySize=auto;html=1;entryX=0.459;entryY=-0.009;entryDx=0;entryDy=0;entryPerimeter=0;" edge="1" parent="1" source="k6_hLHK1kPhXagSigNAJ-18" target="k6_hLHK1kPhXagSigNAJ-24">
          <mxGeometry relative="1" as="geometry" />
        </mxCell>
        <mxCell id="k6_hLHK1kPhXagSigNAJ-18" value="Add Voice Commands" style="verticalLabelPosition=bottom;verticalAlign=top;html=1;shape=offPageConnector;rounded=0;size=0.5;" vertex="1" parent="1">
          <mxGeometry x="520" y="120" width="60" height="60" as="geometry" />
        </mxCell>
        <mxCell id="k6_hLHK1kPhXagSigNAJ-42" style="edgeStyle=orthogonalEdgeStyle;rounded=0;orthogonalLoop=1;jettySize=auto;html=1;" edge="1" parent="1" source="k6_hLHK1kPhXagSigNAJ-20" target="k6_hLHK1kPhXagSigNAJ-18">
          <mxGeometry relative="1" as="geometry" />
        </mxCell>
        <mxCell id="k6_hLHK1kPhXagSigNAJ-20" value="Release 2.0" style="verticalLabelPosition=bottom;verticalAlign=top;html=1;shape=mxgraph.flowchart.collate;" vertex="1" parent="1">
          <mxGeometry x="340" y="230" width="100" height="100" as="geometry" />
        </mxCell>
        <mxCell id="k6_hLHK1kPhXagSigNAJ-35" style="edgeStyle=orthogonalEdgeStyle;rounded=0;orthogonalLoop=1;jettySize=auto;html=1;exitX=0.5;exitY=1;exitDx=0;exitDy=0;exitPerimeter=0;entryX=1;entryY=0.5;entryDx=0;entryDy=0;entryPerimeter=0;" edge="1" parent="1" source="k6_hLHK1kPhXagSigNAJ-24" target="k6_hLHK1kPhXagSigNAJ-27">
          <mxGeometry relative="1" as="geometry" />
        </mxCell>
        <mxCell id="k6_hLHK1kPhXagSigNAJ-24" value="Add Leveling System" style="strokeWidth=2;html=1;shape=mxgraph.flowchart.loop_limit;whiteSpace=wrap;" vertex="1" parent="1">
          <mxGeometry x="680" y="250" width="100" height="60" as="geometry" />
        </mxCell>
        <mxCell id="k6_hLHK1kPhXagSigNAJ-39" style="edgeStyle=orthogonalEdgeStyle;rounded=0;orthogonalLoop=1;jettySize=auto;html=1;exitX=0.5;exitY=1;exitDx=0;exitDy=0;exitPerimeter=0;" edge="1" parent="1" source="k6_hLHK1kPhXagSigNAJ-27" target="k6_hLHK1kPhXagSigNAJ-38">
          <mxGeometry relative="1" as="geometry" />
        </mxCell>
        <mxCell id="k6_hLHK1kPhXagSigNAJ-27" value="Finish Dashboard" style="strokeWidth=2;html=1;shape=mxgraph.flowchart.delay;whiteSpace=wrap;" vertex="1" parent="1">
          <mxGeometry x="520" y="430" width="100" height="60" as="geometry" />
        </mxCell>
        <mxCell id="k6_hLHK1kPhXagSigNAJ-41" style="edgeStyle=orthogonalEdgeStyle;rounded=0;orthogonalLoop=1;jettySize=auto;html=1;exitX=0.5;exitY=1;exitDx=0;exitDy=0;exitPerimeter=0;" edge="1" parent="1" source="k6_hLHK1kPhXagSigNAJ-38" target="k6_hLHK1kPhXagSigNAJ-40">
          <mxGeometry relative="1" as="geometry" />
        </mxCell>
        <mxCell id="k6_hLHK1kPhXagSigNAJ-38" value="Optimize Code" style="verticalLabelPosition=bottom;verticalAlign=top;html=1;shape=card;whiteSpace=wrap;size=20;arcSize=12;" vertex="1" parent="1">
          <mxGeometry x="510" y="600" width="100" height="60" as="geometry" />
        </mxCell>
        <mxCell id="k6_hLHK1kPhXagSigNAJ-44" style="edgeStyle=orthogonalEdgeStyle;rounded=0;orthogonalLoop=1;jettySize=auto;html=1;entryX=1;entryY=0.5;entryDx=0;entryDy=0;" edge="1" parent="1" source="k6_hLHK1kPhXagSigNAJ-40" target="k6_hLHK1kPhXagSigNAJ-43">
          <mxGeometry relative="1" as="geometry" />
        </mxCell>
        <mxCell id="k6_hLHK1kPhXagSigNAJ-40" value="Add to top.gg" style="strokeWidth=2;html=1;shape=mxgraph.flowchart.start_2;whiteSpace=wrap;" vertex="1" parent="1">
          <mxGeometry x="510" y="800" width="100" height="100" as="geometry" />
        </mxCell>
        <mxCell id="k6_hLHK1kPhXagSigNAJ-46" style="edgeStyle=orthogonalEdgeStyle;rounded=0;orthogonalLoop=1;jettySize=auto;html=1;exitX=0.5;exitY=1;exitDx=0;exitDy=0;entryX=0.5;entryY=0;entryDx=0;entryDy=0;entryPerimeter=0;" edge="1" parent="1" source="k6_hLHK1kPhXagSigNAJ-43" target="k6_hLHK1kPhXagSigNAJ-45">
          <mxGeometry relative="1" as="geometry" />
        </mxCell>
        <mxCell id="k6_hLHK1kPhXagSigNAJ-43" value="Make Discord Server" style="html=1;strokeWidth=2;shape=manualInput;whiteSpace=wrap;rounded=1;size=26;arcSize=11;" vertex="1" parent="1">
          <mxGeometry x="240" y="840" width="100" height="60" as="geometry" />
        </mxCell>
        <mxCell id="k6_hLHK1kPhXagSigNAJ-45" value="Get a Server" style="strokeWidth=2;html=1;shape=mxgraph.flowchart.database;whiteSpace=wrap;" vertex="1" parent="1">
          <mxGeometry x="260" y="970" width="60" height="60" as="geometry" />
        </mxCell>
      </root>
    </mxGraphModel>
  </diagram>
</mxfile>
